<?xml version="1.0" encoding="UTF-8"?>
<!-- Generator: visioncortex VTracer 0.6.12 -->
<svg version="1.1" xmlns="http://www.w3.org/2000/svg" width="510" height="510">
<path d="M0 0 C13.456 -0.185 26.912 -0.328 40.369 -0.414 C46.618 -0.456 52.866 -0.513 59.114 -0.604 C65.144 -0.69 71.173 -0.738 77.204 -0.759 C79.504 -0.774 81.805 -0.803 84.105 -0.846 C87.328 -0.904 90.548 -0.912 93.772 -0.908 C94.723 -0.937 95.674 -0.966 96.654 -0.995 C100.55 -0.947 102.997 -0.905 105.964 1.772 C110 6.976 110 6.976 110 10 C110.66 10 111.32 10 112 10 C113.727 12.117 113.727 12.117 115.625 14.875 C116.257 15.78 116.888 16.685 117.539 17.617 C119 20 119 20 119 22 C119.66 22 120.32 22 121 22 C122.645 24.114 124.177 26.23 125.688 28.438 C126.583 29.724 127.48 31.009 128.379 32.293 C128.821 32.925 129.264 33.557 129.719 34.208 C131.963 37.347 134.383 40.34 136.82 43.328 C138 45 138 45 138 47 C138.66 47 139.32 47 140 47 C140 47.99 140 48.98 140 50 C140.99 50.33 141.98 50.66 143 51 C147 56.371 147 56.371 147 59 C147.66 59 148.32 59 149 59 C150.523 60.844 150.523 60.844 152.375 63.5 C152.726 63.996 152.726 63.996 154.504 66.504 C154.7 66.78 154.7 66.78 155.692 68.18 C158.178 71.639 160.75 75.035 163.312 78.438 C163.828 79.123 164.343 79.809 164.875 80.516 C165.835 81.793 166.795 83.07 167.756 84.347 C169.173 86.23 170.587 88.114 172 90 C175.46 88.577 177.026 86.94 179.125 83.875 C180.633 81.68 180.633 81.68 182 80 C182.66 80 183.32 80 184 80 C184 79.34 184 78.68 184 78 C184.66 78 185.32 78 186 78 C186.245 77.435 186.49 76.871 186.742 76.289 C188.227 73.587 190.02 71.627 192.125 69.375 C196.124 65.033 199.796 60.531 203.371 55.836 C203.64 55.533 203.64 55.533 205 54 C205.66 54 206.32 54 207 54 C207.268 53.417 207.536 52.835 207.812 52.234 C209.015 49.972 210.338 48.194 212 46.25 C212.516 45.636 213.031 45.023 213.562 44.391 C215 43 215 43 217 43 C217.66 41.35 218.32 39.7 219 38 C219.66 38 220.32 38 221 38 C221.124 37.724 221.124 37.724 221.75 36.328 C223.242 33.549 225.037 31.219 227 28.75 C227.701 27.858 228.403 26.966 229.125 26.047 C229.434 25.709 229.434 25.709 231 24 C231.66 24 232.32 24 233 24 C233 23.34 233 22.68 233 22 C233.66 22 234.32 22 235 22 C235.244 21.438 235.487 20.876 235.738 20.297 C237.242 17.56 239.067 15.542 241.188 13.25 C245.935 8.095 245.935 8.095 247.367 6.001 C249.752 2.734 251.598 0.38 255.595 -0.704 C258.706 -0.924 261.724 -0.9 264.84 -0.781 C265.962 -0.77 267.084 -0.759 268.24 -0.747 C271.808 -0.702 275.371 -0.602 278.938 -0.5 C281.363 -0.46 283.788 -0.423 286.213 -0.391 C292.143 -0.303 298.071 -0.169 304 0 C301.806 5.779 301.806 5.779 299 8 C298.34 8 297.68 8 297 8 C296.887 8.361 296.887 8.361 296.312 10.188 C294.741 13.555 292.68 15.45 290 18 C289.722 18.382 289.722 18.382 288.312 20.312 C287.879 20.869 287.446 21.426 287 22 C286.34 22 285.68 22 285 22 C284.34 23.65 283.68 25.3 283 27 C282.34 27 281.68 27 281 27 C281 27.66 281 28.32 281 29 C279.354 30.687 277.683 32.35 276 34 C273.759 36.602 271.625 39.292 269.486 41.979 C268.367 43.355 267.188 44.682 266 46 C265.34 46 264.68 46 264 46 C263.711 46.598 263.423 47.196 263.125 47.812 C262 50 262 50 260 53 C259.34 53 258.68 53 258 53 C257.752 53.557 257.505 54.114 257.25 54.688 C255.771 57.424 254.065 59.677 252 62 C251.34 62 250.68 62 250 62 C249.874 62.286 249.874 62.286 249.234 63.734 C247.847 66.281 246.222 68.126 244.25 70.25 C240.959 73.858 238.02 77.564 235.227 81.566 C234.822 82.039 234.417 82.513 234 83 C233.34 83 232.68 83 232 83 C231.67 83.99 231.34 84.98 231 86 C230.34 86 229.68 86 229 86 C228.887 86.266 228.887 86.266 228.312 87.609 C226.566 90.79 224.319 93.48 222 96.25 C221.549 96.804 221.098 97.359 220.633 97.93 C219.469 99.327 218.239 100.669 217 102 C216.34 102 215.68 102 215 102 C214.856 102.299 214.856 102.299 214.125 103.812 C213 106 213 106 211 109 C210.34 109 209.68 109 209 109 C208.752 109.557 208.505 110.114 208.25 110.688 C206.771 113.424 205.065 115.677 203 118 C202.34 118 201.68 118 201 118 C199.539 120.647 199 121.894 199 125 C200.363 127.172 200.363 127.172 202.312 129.75 C203.031 130.713 203.749 131.676 204.488 132.668 C204.886 133.196 205.284 133.723 205.694 134.267 C208.146 137.52 210.575 140.79 213 144.062 C213.493 144.718 213.986 145.373 214.493 146.048 C218 150.775 218 150.775 218 153 C218.66 153 219.32 153 220 153 C221.289 154.461 221.289 154.461 222.625 156.375 C223.071 157.001 223.517 157.628 223.977 158.273 C225 160 225 160 225 162 C225.66 162 226.32 162 227 162 C228.727 164.117 228.727 164.117 230.625 166.875 C231.257 167.78 231.888 168.685 232.539 169.617 C234 172 234 172 234 174 C234.66 174 235.32 174 236 174 C237.289 175.461 237.289 175.461 238.625 177.375 C239.071 178.001 239.517 178.628 239.977 179.273 C241 181 241 181 241 183 C241.66 183 242.32 183 243 183 C244.798 185.258 246.475 187.513 248.125 189.875 C248.359 190.2 248.359 190.2 249.543 191.848 C253 196.736 253 196.736 253 199 C253.66 199 254.32 199 255 199 C255 199.99 255 200.98 255 202 C255.66 202 256.32 202 257 202 C258.289 203.461 258.289 203.461 259.625 205.375 C260.071 206.001 260.517 206.628 260.977 207.273 C262 209 262 209 262 211 C262.66 211 263.32 211 264 211 C265.727 213.117 265.727 213.117 267.625 215.875 C268.257 216.78 268.888 217.685 269.539 218.617 C271 221 271 221 271 223 C271.66 223 272.32 223 273 223 C274.523 224.844 274.523 224.844 276.375 227.5 C277.084 228.499 277.793 229.498 278.523 230.527 C278.916 231.081 279.309 231.636 279.714 232.207 C282.095 235.527 284.548 238.794 287 242.062 C287.521 242.757 288.041 243.452 288.578 244.168 C291.303 247.791 294.069 251.364 296.938 254.875 C301.262 260.202 305.21 265.793 309.196 271.375 C312.825 276.437 316.566 281.315 320.609 286.055 C322 288 322 288 323 292 C289.67 292 256.34 292 222 292 C221.67 291.01 221.34 290.02 221 289 C220.34 289 219.68 289 219 289 C217.711 287.539 217.711 287.539 216.375 285.625 C215.929 284.999 215.483 284.372 215.023 283.727 C214 282 214 282 214 280 C213.34 280 212.68 280 212 280 C212 279.01 212 278.02 212 277 C211.34 277 210.68 277 210 277 C208.711 275.539 208.711 275.539 207.375 273.625 C206.929 272.999 206.483 272.372 206.023 271.727 C205 270 205 270 205 268 C204.34 268 203.68 268 203 268 C201.711 266.539 201.711 266.539 200.375 264.625 C199.929 263.999 199.483 263.372 199.023 262.727 C198 261 198 261 198 259 C197.34 259 196.68 259 196 259 C196 258.01 196 257.02 196 256 C195.01 255.67 194.02 255.34 193 255 C189 249.629 189 249.629 189 247 C188.01 246.67 187.02 246.34 186 246 C182 240.629 182 240.629 182 238 C181.01 237.67 180.02 237.34 179 237 C177.668 235.348 177.668 235.348 176.188 233.062 C172.214 227.186 167.876 221.635 163.492 216.059 C160.445 212.174 157.441 208.27 154.531 204.281 C153.988 203.54 153.445 202.798 152.885 202.034 C151.855 200.62 150.833 199.201 149.82 197.775 C148.617 196.129 147.316 194.556 146 193 C145.01 193 144.02 193 143 193 C142.76 193.558 142.52 194.116 142.273 194.691 C140.723 197.502 138.807 199.585 136.625 201.938 C134.249 204.508 131.97 207.039 129.836 209.816 C129.23 210.537 128.624 211.258 128 212 C127.34 212 126.68 212 126 212 C125.34 213.65 124.68 215.3 124 217 C123.34 217 122.68 217 122 217 C121.732 217.583 121.464 218.165 121.188 218.766 C119.985 221.028 118.662 222.806 117 224.75 C116.484 225.364 115.969 225.977 115.438 226.609 C114 228 114 228 112 228 C111.34 229.65 110.68 231.3 110 233 C109.34 233 108.68 233 108 233 C107.752 233.552 107.505 234.103 107.25 234.672 C105.758 237.451 103.963 239.781 102 242.25 C101.299 243.142 100.597 244.034 99.875 244.953 C99.256 245.629 98.637 246.304 98 247 C97.34 247 96.68 247 96 247 C96 247.66 96 248.32 96 249 C95.34 249 94.68 249 94 249 C93.878 249.282 93.878 249.282 93.258 250.711 C91.773 253.413 89.98 255.373 87.875 257.625 C83.876 261.967 80.204 266.469 76.629 271.164 C76.091 271.77 75.554 272.376 75 273 C74.34 273 73.68 273 73 273 C72.764 273.554 72.528 274.109 72.285 274.68 C70.687 277.564 68.681 279.712 66.438 282.125 C62.097 286.806 62.097 286.806 61 289 C60.34 289 59.68 289 59 289 C58.67 289.99 58.34 290.98 58 292 C40.84 292 23.68 292 6 292 C7.528 288.945 8.809 286.557 11 284 C11.66 284 12.32 284 13 284 C13.114 283.727 13.114 283.727 13.691 282.344 C15.388 279.305 17.562 277.04 19.938 274.5 C24.77 269.319 24.77 269.319 26.691 266.656 C26.907 266.383 26.907 266.383 28 265 C28.66 265 29.32 265 30 265 C30.66 263.35 31.32 261.7 32 260 C32.66 260 33.32 260 34 260 C34 259.34 34 258.68 34 258 C34.66 258 35.32 258 36 258 C36.248 257.448 36.495 256.897 36.75 256.328 C38.242 253.549 40.037 251.219 42 248.75 C42.701 247.858 43.403 246.966 44.125 246.047 C44.434 245.709 44.434 245.709 46 244 C46.66 244 47.32 244 48 244 C48.33 243.01 48.66 242.02 49 241 C49.66 241 50.32 241 51 241 C51.113 240.734 51.113 240.734 51.688 239.391 C53.434 236.21 55.681 233.52 58 230.75 C58.451 230.196 58.902 229.641 59.367 229.07 C60.531 227.673 61.761 226.331 63 225 C63.66 225 64.32 225 65 225 C65.66 223.35 66.32 221.7 67 220 C67.66 220 68.32 220 69 220 C69.268 219.417 69.536 218.835 69.812 218.234 C71.015 215.972 72.338 214.194 74 212.25 C74.516 211.636 75.031 211.023 75.562 210.391 C77 209 77 209 79 209 C79.66 207.35 80.32 205.7 81 204 C81.66 204 82.32 204 83 204 C83 203.34 83 202.68 83 202 C83.66 202 84.32 202 85 202 C85.248 201.448 85.495 200.897 85.75 200.328 C87.242 197.549 89.037 195.219 91 192.75 C91.701 191.858 92.403 190.966 93.125 190.047 C93.744 189.371 94.363 188.696 95 188 C95.66 188 96.32 188 97 188 C97.33 187.01 97.66 186.02 98 185 C98.66 185 99.32 185 100 185 C100.227 184.469 100.454 183.938 100.688 183.391 C102.434 180.21 104.681 177.52 107 174.75 C107.451 174.196 107.902 173.641 108.367 173.07 C109.531 171.673 110.761 170.331 112 169 C112.66 169 113.32 169 114 169 C114.66 167.35 115.32 165.7 116 164 C116.66 164 117.32 164 118 164 C118.309 163.381 118.619 162.762 118.938 162.125 C119.625 160.75 120.312 159.375 121 158 C120.01 157.67 119.02 157.34 118 157 C114 151.629 114 151.629 114 149 C113.34 149 112.68 149 112 149 C110.726 147.426 109.531 145.788 108.375 144.125 C105.639 140.263 102.851 136.493 99.875 132.812 C97.387 129.73 94.912 126.642 92.5 123.5 C92.015 122.871 91.531 122.242 91.031 121.594 C90 120 90 120 90 118 C89.34 118 88.68 118 88 118 C86.683 116.386 85.446 114.706 84.25 113 C81.264 108.777 78.216 104.633 75.031 100.559 C74 99 74 99 74 97 C73.34 97 72.68 97 72 97 C70.371 95.016 70.371 95.016 68.438 92.25 C62.42 83.771 56.158 75.485 49.812 67.25 C49.393 66.705 48.974 66.16 48.542 65.599 C46.711 63.22 44.878 60.843 43.035 58.473 C42.487 57.76 41.939 57.047 41.375 56.312 C40.908 55.711 40.442 55.109 39.961 54.488 C39 53 39 53 39 51 C38.34 51 37.68 51 37 51 C35.273 48.883 35.273 48.883 33.375 46.125 C32.743 45.22 32.112 44.315 31.461 43.383 C30 41 30 41 30 39 C29.505 38.835 29.505 38.835 27 38 C25.613 36.441 25.613 36.441 24.312 34.562 C23.876 33.945 23.439 33.328 22.988 32.691 C22 31 22 31 22 29 C21.34 29 20.68 29 20 29 C18.683 27.386 17.446 25.706 16.25 24 C13.264 19.777 10.216 15.633 7.031 11.559 C6 10 6 10 6 8 C5.34 8 4.68 8 4 8 C0 2.588 0 2.588 0 0 Z M61 29 C63.249 34.622 63.249 34.622 65.566 37.48 C66.052 38.087 66.537 38.693 67.037 39.318 C67.54 39.935 68.044 40.552 68.562 41.188 C73.9 47.8 73.9 47.8 75 50 C75.66 50 76.32 50 77 50 C77.268 50.743 77.536 51.485 77.812 52.25 C78.953 54.891 80.094 56.856 82 59 C82.66 59 83.32 59 84 59 C84.227 59.681 84.454 60.361 84.688 61.062 C86.312 64.699 88.328 68.028 91 71 C91.66 71 92.32 71 93 71 C93.268 71.557 93.536 72.114 93.812 72.688 C95.109 75.212 96.425 77.637 98 80 C98.66 80 99.32 80 100 80 C100.219 80.684 100.438 81.369 100.664 82.074 C102.38 85.832 104.745 88.653 107.375 91.812 C111.781 97.211 116.08 102.667 120.25 108.25 C120.747 108.914 121.245 109.579 121.757 110.263 C124.024 113.304 126.267 116.359 128.461 119.453 C129.175 120.459 129.889 121.464 130.625 122.5 C131.236 123.377 131.847 124.253 132.477 125.156 C132.979 125.765 133.482 126.373 134 127 C134.66 127 135.32 127 136 127 C136.227 127.681 136.454 128.361 136.688 129.062 C138.312 132.699 140.328 136.028 143 139 C143.66 139 144.32 139 145 139 C145.268 139.743 145.536 140.485 145.812 141.25 C146.953 143.891 148.094 145.856 150 148 C150.66 148 151.32 148 152 148 C152.227 148.681 152.454 149.361 152.688 150.062 C154.312 153.699 156.328 157.028 159 160 C159.66 160 160.32 160 161 160 C161.268 160.557 161.536 161.114 161.812 161.688 C163.109 164.212 164.425 166.637 166 169 C166.66 169 167.32 169 168 169 C168.204 169.668 168.407 170.335 168.617 171.023 C170.512 175.103 173.239 178.202 176.125 181.625 C180.629 187.062 184.951 192.55 189.051 198.301 C191.268 201.371 193.561 204.378 195.875 207.375 C196.084 207.646 196.084 207.646 197.143 209.018 C198.861 211.241 200.583 213.463 202.307 215.682 C203.602 217.349 204.896 219.018 206.188 220.688 C206.395 220.955 206.395 220.955 207.443 222.307 C210.681 226.513 213.698 230.843 216.625 235.27 C217.079 235.841 217.533 236.412 218 237 C218.66 237 219.32 237 220 237 C220.134 237.371 220.134 237.371 220.812 239.25 C221.953 241.891 223.094 243.856 225 246 C225.66 246 226.32 246 227 246 C227.227 246.681 227.454 247.361 227.688 248.062 C229.312 251.699 231.328 255.028 234 258 C234.66 258 235.32 258 236 258 C236.33 258.99 236.66 259.98 237 261 C245.25 261 253.5 261 262 261 C260.02 258.03 258.04 255.06 256 252 C255.34 251.01 254.68 250.02 254 249 C253.34 249 252.68 249 252 249 C251.876 248.647 251.876 248.647 251.25 246.863 C249.839 243.631 248.075 241.037 246 238.188 C245.299 237.212 244.597 236.236 243.875 235.23 C243.256 234.494 242.637 233.758 242 233 C241.34 233 240.68 233 240 233 C239.773 232.319 239.546 231.639 239.312 230.938 C237.688 227.301 235.672 223.972 233 221 C232.34 221 231.68 221 231 221 C230.732 220.443 230.464 219.886 230.188 219.312 C228.891 216.788 227.575 214.363 226 212 C225.34 212 224.68 212 224 212 C223.876 211.647 223.876 211.647 223.25 209.863 C221.839 206.631 220.075 204.037 218 201.188 C217.299 200.212 216.597 199.236 215.875 198.23 C215.256 197.494 214.637 196.758 214 196 C213.34 196 212.68 196 212 196 C212 195.01 212 194.02 212 193 C211.34 193 210.68 193 210 193 C209.732 192.443 209.464 191.886 209.188 191.312 C207.891 188.788 206.575 186.363 205 184 C204.34 184 203.68 184 203 184 C202.722 183.428 202.443 182.855 202.156 182.266 C201.017 180.034 199.801 177.891 198.5 175.75 C198.289 175.397 198.289 175.397 197.219 173.609 C197.018 173.344 197.018 173.344 196 172 C195.34 172 194.68 172 194 172 C193.866 171.629 193.866 171.629 193.188 169.75 C192.047 167.109 190.906 165.144 189 163 C188.34 163 187.68 163 187 163 C186.878 162.647 186.878 162.647 186.262 160.859 C184.817 157.585 182.993 155.087 180.812 152.25 C180.612 151.988 180.612 151.988 179.598 150.661 C178.405 149.103 177.203 147.551 176 146 C175.686 145.593 175.686 145.593 174.098 143.535 C172.405 141.351 170.704 139.174 169 137 C164.317 131.026 159.732 124.986 155.188 118.906 C153.315 116.418 151.419 113.952 149.5 111.5 C145.697 106.636 142.003 101.693 138.308 96.747 C136.878 94.837 135.441 92.932 134.004 91.027 C132.961 89.643 131.918 88.259 130.875 86.875 C130.619 86.536 130.619 86.536 129.324 84.818 C125.842 80.179 122.504 75.464 119.305 70.625 C118.874 70.089 118.444 69.553 118 69 C117.34 69 116.68 69 116 69 C115.785 68.323 115.569 67.646 115.348 66.949 C113.58 63.082 111.114 60.092 108.438 56.812 C103.1 50.2 103.1 50.2 102 48 C101.34 48 100.68 48 100 48 C99.752 47.295 99.505 46.59 99.25 45.863 C97.839 42.631 96.075 40.037 94 37.188 C93.299 36.212 92.597 35.236 91.875 34.23 C91.256 33.494 90.637 32.758 90 32 C89.34 32 88.68 32 88 32 C87.67 31.01 87.34 30.02 87 29 C78.42 29 69.84 29 61 29 Z " fill="#000000" transform="translate(94,109)"/>
</svg>
