<?xml version="1.0" encoding="UTF-8"?>
<!-- Generator: visioncortex VTracer 0.6.4 -->
<svg version="1.1" xmlns="http://www.w3.org/2000/svg" width="360" height="360">
<path d="M0 0 C9.9 0 19.8 0 30 0 C32.95 22.29 35.89 44.58 38.84 66.87 C40.21 77.22 41.58 87.57 42.95 97.92 C44.14 106.96 45.34 115.99 46.53 125.02 C47.16 129.8 47.79 134.57 48.42 139.34 C50.96 158.56 53.5 177.78 56 197 C58.01 184.6 59.83 172.18 61.44 159.72 C61.66 157.98 61.89 156.25 62.11 154.52 C62.59 150.83 63.07 147.14 63.55 143.46 C64.3 137.63 65.06 131.8 65.82 125.97 C67.7 111.52 69.57 97.07 71.44 82.62 C72.91 71.33 74.37 60.05 75.84 48.77 C76.59 42.97 77.35 37.17 78.09 31.37 C78.56 27.78 79.03 24.19 79.49 20.61 C79.71 18.94 79.93 17.27 80.14 15.6 C80.43 13.33 80.73 11.06 81.03 8.79 C81.19 7.52 81.36 6.25 81.53 4.94 C82 2 82 2 83 0 C92.9 0 102.8 0 113 0 C113 2.31 113 4.62 113 7 C110.19 9.19 110.19 9.19 107 11 C102.46 16.01 102.85 21.34 102.86 27.82 C102.86 28.72 102.85 29.63 102.85 30.55 C102.84 33.58 102.84 36.6 102.84 39.63 C102.83 41.8 102.83 43.96 102.82 46.13 C102.81 52.02 102.8 57.91 102.8 63.8 C102.8 67.48 102.79 71.16 102.79 74.84 C102.77 86.35 102.76 97.86 102.76 109.37 C102.76 122.66 102.74 135.95 102.71 149.24 C102.69 159.51 102.68 169.78 102.68 180.05 C102.68 186.18 102.67 192.32 102.65 198.45 C102.64 204.22 102.63 210 102.64 215.77 C102.64 217.88 102.64 220 102.63 222.12 C102.62 225.01 102.62 227.9 102.63 230.8 C102.62 231.63 102.62 232.47 102.61 233.33 C102.65 238.62 103.5 242.31 106 247 C108.26 249.1 110.25 250.63 113 252 C113 254.64 113 257.28 113 260 C99.8 260 86.6 260 73 260 C73 257.36 73 254.72 73 252 C73.61 251.79 74.23 251.58 74.86 251.37 C79.21 249.72 81.5 248.81 84 244.75 C85.79 238.03 86.15 231.47 86.12 224.56 C86.12 223.75 86.12 222.94 86.12 222.1 C86.12 219.4 86.12 216.71 86.11 214.01 C86.11 212.07 86.11 210.12 86.11 208.18 C86.11 202.92 86.11 197.67 86.1 192.41 C86.1 186.91 86.09 181.41 86.09 175.91 C86.09 165.5 86.08 155.09 86.07 144.68 C86.06 132.83 86.06 120.98 86.05 109.13 C86.04 84.75 86.02 60.38 86 36 C85.77 37.71 85.77 37.71 85.53 39.46 C81.89 66.56 78.24 93.65 74.59 120.74 C74.14 124.07 73.69 127.41 73.24 130.74 C73.15 131.4 73.06 132.07 72.97 132.75 C71.52 143.5 70.07 154.25 68.62 165.01 C67.14 176.03 65.65 187.06 64.17 198.09 C63.33 204.28 62.49 210.48 61.66 216.68 C60.88 222.5 60.09 228.33 59.31 234.15 C59.02 236.3 58.73 238.44 58.44 240.58 C58.05 243.5 57.66 246.42 57.26 249.33 C57.15 250.19 57.03 251.05 56.91 251.93 C56.11 257.77 56.11 257.77 55 260 C54.01 260 53.02 260 52 260 C49.62 247.22 47.73 234.4 46 221.52 C45.71 219.42 45.43 217.32 45.14 215.21 C44.37 209.57 43.6 203.92 42.84 198.27 C42.04 192.34 41.23 186.42 40.43 180.49 C38.9 169.3 37.39 158.1 35.87 146.91 C34.14 134.15 32.41 121.4 30.67 108.65 C27.11 82.43 23.55 56.22 20 30 C19.93 56 19.88 82 19.84 108 C19.83 120.07 19.81 132.15 19.77 144.22 C19.74 154.74 19.72 165.27 19.72 175.8 C19.71 181.37 19.7 186.94 19.68 192.51 C19.66 197.76 19.66 203.01 19.66 208.26 C19.66 210.18 19.65 212.1 19.64 214.02 C19.11 232.71 19.11 232.71 27 249 C30.1 250.89 30.1 250.89 33 252 C33 254.64 33 257.28 33 260 C22.11 260 11.22 260 0 260 C0 257.36 0 254.72 0 252 C1.47 250.83 2.94 249.66 4.47 248.57 C13.62 239.17 10.15 214.27 10.15 201.82 C10.15 199.93 10.15 198.04 10.16 196.15 C10.16 191.06 10.17 185.96 10.17 180.87 C10.17 177.68 10.17 174.48 10.17 171.29 C10.18 160.14 10.19 148.98 10.19 137.83 C10.18 127.46 10.2 117.1 10.21 106.73 C10.22 97.8 10.23 88.87 10.23 79.94 C10.23 74.62 10.23 69.3 10.24 63.98 C10.25 58.98 10.25 53.97 10.24 48.97 C10.24 47.14 10.25 45.32 10.25 43.49 C11.31 26.13 11.31 26.13 6.06 10.7 C4.11 9.09 2.32 7.99 0 7 C0 4.69 0 2.38 0 0 Z " fill="#FFFFFF" transform="translate(27,65)"/>
<path d="M0 0 C5.78 5.25 8.41 10.39 8.82 18.23 C8.73 21.11 8.38 23.09 6.75 25.5 C4.62 26.31 4.62 26.31 2.75 26.5 C0.17 22.67 -0.91 19.32 -1.81 14.81 C-2.58 10.16 -2.58 10.16 -5.25 6.5 C-9.99 5.95 -12.23 5.94 -16.44 8.25 C-22.22 13.75 -24.94 23.37 -25.41 31.16 C-26.34 56.42 -26.34 56.42 -14.81 78.06 C-11.58 79.88 -9.91 80.1 -6.25 79.5 C-0.04 76.91 1.72 72.21 4.45 66.28 C5.75 63.5 5.75 63.5 7.75 60.5 C8.74 61 8.74 61 9.75 61.5 C9.11 68.17 6.91 73.85 4 79.81 C3.68 80.49 3.35 81.18 3.02 81.88 C0.2 87.44 -3.13 91.46 -9.25 93.5 C-13.23 93.88 -15.67 93.77 -19.31 92.06 C-25.67 86.51 -29.25 79.62 -31.25 71.5 C-31.45 70.69 -31.66 69.88 -31.87 69.04 C-35.79 50.18 -34.84 26.54 -25.25 9.5 C-18.87 0.67 -10.89 -5.03 0 0 Z " fill="#FFFFFF" transform="translate(285.25,221.5)"/>
<path d="M0 0 C2.58 1.11 4.65 2.43 7 4 C7 3.34 7 2.68 7 2 C7.99 2.33 8.98 2.66 10 3 C10 11.25 10 19.5 10 28 C9.01 28 8.02 28 7 28 C6.82 26.99 6.64 25.97 6.45 24.93 C6.2 23.58 5.94 22.23 5.69 20.88 C5.57 20.21 5.45 19.54 5.33 18.86 C4.46 14.33 3.37 9.37 0 6 C-4.94 5.52 -4.94 5.52 -9.31 7.56 C-12.84 12.66 -13.48 17.74 -12.6 23.74 C-10.89 30.18 -6.53 34.72 -1.83 39.22 C7.28 48.09 13.87 56.24 14.31 69.31 C14.11 77.87 12.47 85.25 6.6 91.66 C3.76 94.04 1.5 94.94 -2.19 95.38 C-7.02 94.9 -10.71 93.18 -15 91 C-15.66 91.99 -16.32 92.98 -17 94 C-17.66 94 -18.32 94 -19 94 C-19 83.77 -19 73.54 -19 63 C-18.34 63 -17.68 63 -17 63 C-16.74 64.23 -16.74 64.23 -16.48 65.49 C-14.34 78.25 -14.34 78.25 -7 88 C-1.36 88.66 -1.36 88.66 3.44 86.19 C6.94 81.29 6.61 75.78 6 70 C3.93 61.63 -2.68 55.72 -8.57 49.8 C-17.19 41.06 -19.29 33.86 -19.32 21.86 C-19.2 14.02 -17.57 8.94 -12.38 3 C-8.46 -0.3 -5.02 -0.69 0 0 Z " fill="#FFFFFF" transform="translate(213,220)"/>
</svg>
